<svg xmlns="http://www.w3.org/2000/svg" viewBox="0 0 1200 280" width="100%" height="100%">
  <defs>
    <linearGradient id="matrixGrad" x1="0%" y1="0%" x2="100%" y2="100%">
      <stop offset="0%" stop-color="#22c55e" stop-opacity="0.9"/>
      <stop offset="50%" stop-color="#15803d" stop-opacity="1"/>
      <stop offset="100%" stop-color="#166534" stop-opacity="0.9"/>
    </linearGradient>
    <linearGradient id="glowGrad" x1="0%" y1="0%" x2="100%" y2="0%">
      <stop offset="0%" stop-color="#4ade80" stop-opacity="0.25"/>
      <stop offset="100%" stop-color="#15803d" stop-opacity="0"/>
    </linearGradient>
    <pattern id="terminalGrid" width="40" height="40" patternUnits="userSpaceOnUse">
      <path d="M 40 0 L 0 0 0 40" fill="none" stroke="#052e16" stroke-width="0.6"/>
    </pattern>
  </defs>

  <rect width="1200" height="280" fill="#020617"/>
  <rect width="1200" height="280" fill="url(#terminalGrid)"/>

  <rect x="0" y="0" width="6" height="280" fill="url(#matrixGrad)"/>
  <path d="M 6 0 L 150 280 L 6 280 Z" fill="url(#glowGrad)" opacity="0.2"/>

  <g transform="translate(1000, -10)" opacity="0.04" fill="#4ade80" font-family="monospace" font-size="22" font-weight="bold">
    <text x="0" y="40">0101101</text> <text x="0" y="80">[ +1 ]</text>
    <text x="-40" y="120">[ -1 ]</text> <text x="-20" y="160">001011</text>
    <text x="20" y="200">[  0 ]</text> <text x="-50" y="240">[ +1 ]</text>
  </g>

  <g transform="translate(50, 65)" stroke="url(#matrixGrad)" stroke-width="2.5" fill="none" stroke-linecap="round" stroke-linejoin="round">
    <path d="M 40 40 L 20 25 L 20 5 L 40 20 Z" fill="#042f1a" fill-opacity="0.3"/>
    <path d="M 45 50 L 10 35 L 10 15 L 45 40 Z" fill="#042f1a" fill-opacity="0.1"/>
    <path d="M 70 40 L 90 25 L 90 5 L 70 20 Z" fill="#042f1a" fill-opacity="0.3"/>
    <path d="M 65 50 L 100 35 L 100 15 L 65 40 Z" fill="#042f1a" fill-opacity="0.1"/>
    <path d="M 55 10 L 45 25 L 55 35 L 65 25 Z" fill="url(#matrixGrad)"/>
    <path d="M 40 65 L 55 50 L 70 65 L 55 110 Z" />
    <path d="M 30 85 L 55 70 L 80 85" />
  </g>

  <g transform="translate(190, 135)">
    <text x="0" y="0" font-family="-apple-system, BlinkMacSystemFont, 'Segoe UI', Helvetica, Arial, sans-serif" font-size="84" font-weight="900" fill="#ffffff" letter-spacing="5">
      ATLAS
    </text>
    <text x="0" y="42" font-family="-apple-system, BlinkMacSystemFont, 'Segoe UI', Helvetica, Arial, sans-serif" font-size="22" font-weight="400" fill="#64748b" letter-spacing="0.5">
      Ternary Inference Engine for <tspan fill="#4ade80" font-weight="600">BitNet b1.58</tspan>
    </text>
  </g>

  <g transform="translate(680, 80)" font-family="monospace" font-size="15" fill="#cbd5e1">
    <g transform="translate(0, 0)">
      <rect x="0" y="0" width="22" height="22" rx="4" fill="#052e16" stroke="#22c55e" stroke-width="1"/>
      <path d="M 5 11 L 9 15 L 17 6" fill="none" stroke="#4ade80" stroke-width="2.5" stroke-linecap="round" stroke-linejoin="round"/>
      <text x="38" y="16" font-weight="bold" fill="#ffffff">Architecture:</text>
      <text x="165" y="16" fill="#86efac">Pure CPU Int8 AVX2 Matmuls</text>
    </g>

    <g transform="translate(0, 45)">
      <rect x="0" y="0" width="22" height="22" rx="4" fill="#052e16" stroke="#22c55e" stroke-width="1"/>
      <path d="M 5 11 L 9 15 L 17 6" fill="none" stroke="#4ade80" stroke-width="2.5" stroke-linecap="round" stroke-linejoin="round"/>
      <text x="38" y="16" font-weight="bold" fill="#ffffff">Format:</text>
      <text x="110" y="16" fill="#aaf2c5">TQ1.0 (5 Ternary Trits packed/byte)</text>
    </g>

    <g transform="translate(0, 90)">
      <rect x="0" y="0" width="22" height="22" rx="4" fill="#052e16" stroke="#22c55e" stroke-width="1"/>
      <path d="M 5 11 L 9 15 L 17 6" fill="none" stroke="#4ade80" stroke-width="2.5" stroke-linecap="round" stroke-linejoin="round"/>
      <text x="38" y="16" font-weight="bold" fill="#ffffff">Hardware:</text>
      <text x="130" y="16" fill="#4ade80" font-weight="bold">8 GB RAM Optimized</text>
      <text x="285" y="16" fill="#64748b">(Falcon3 1B/3B)</text>
    </g>
  </g>

  <line x1="60" y1="245" x2="1140" y2="245" stroke="#052e16" stroke-width="1.5"/>

  <g transform="translate(60, 264)" font-family="monospace" font-size="11" fill="#166534">
    <text x="0" y="0" font-weight="bold">TARGET: CORE-X HARDWARE LAYER</text>
    <text x="440" y="0" text-anchor="middle" fill="#475569">Apache-2.0 License • Microsoft Research BitNet b1.58</text>
    <text x="1080" y="0" text-anchor="end" fill="#22c55e">KERNEL: FUSED C++ LAYER LNF</text>
  </g>
</svg>
